<svg xmlns="http://www.w3.org/2000/svg" width="17.999" height="18" viewBox="0 0 17.999 18">
  <path id="ios-person" d="M82,81.545c-.337-1.491-2.264-2.217-2.93-2.452a21.842,21.842,0,0,0-2.442-.469,2.481,2.481,0,0,1-1.13-.52,9.873,9.873,0,0,1-.075-2.311,6.953,6.953,0,0,0,.534-1.017A13.12,13.12,0,0,0,76.351,73s.384,0,.52-.675a6.641,6.641,0,0,0,.347-1.57c-.028-.539-.323-.525-.323-.525a8.219,8.219,0,0,0,.319-2.4A3.862,3.862,0,0,0,73.014,64c-2.77,0-4.247,1.9-4.2,3.825a8.572,8.572,0,0,0,.314,2.4s-.3-.014-.323.525a6.642,6.642,0,0,0,.347,1.57c.131.675.52.675.52.675a13.121,13.121,0,0,0,.394,1.777,6.953,6.953,0,0,0,.534,1.017A9.873,9.873,0,0,1,70.52,78.1a2.481,2.481,0,0,1-1.13.52,21.841,21.841,0,0,0-2.442.469c-.666.234-2.592.961-2.93,2.452a.375.375,0,0,0,.37.455H81.634A.374.374,0,0,0,82,81.545Z" transform="translate(-64.009 -64)" fill="#fff"/>
</svg>
