<svg id="ios-home" xmlns="http://www.w3.org/2000/svg" width="24.646" height="24.638" viewBox="0 0 24.646 24.638">
  <path id="Path_3" data-name="Path 3" d="M105.624,103.253a.232.232,0,0,0-.3,0l-9.239,7.391a.249.249,0,0,0-.089.184V124.45a.119.119,0,0,0,.118.118h6.4a.119.119,0,0,0,.118-.118v-8.292a.119.119,0,0,1,.118-.118H108.2a.119.119,0,0,1,.118.118v8.292a.119.119,0,0,0,.118.118h6.4a.119.119,0,0,0,.118-.118V110.828a.239.239,0,0,0-.089-.184Z" transform="translate(-93.156 -99.931)" fill="#f29b62"/>
  <path id="Path_4" data-name="Path 4" d="M72.307,57.251,61.114,48.284a1.3,1.3,0,0,0-1.623,0l-4.874,3.962v-2.5a.119.119,0,0,0-.118-.118H50.945a.119.119,0,0,0-.118.118v5.461L48.3,57.287a.829.829,0,0,0-.071,1.238.824.824,0,0,0,.586.243.834.834,0,0,0,.521-.184l10.892-8.765a.106.106,0,0,1,.077-.024.143.143,0,0,1,.077.024l10.892,8.73a.834.834,0,0,0,.521.184.84.84,0,0,0,.835-.877.842.842,0,0,0-.32-.6Z" transform="translate(-47.982 -48)" fill="#f29b62"/>
</svg>
