<svg xmlns="http://www.w3.org/2000/svg" width="13.924" height="13.758" viewBox="0 0 13.924 13.758">
  <path id="ios-cog" d="M61.68,56.7l-.873-.141a.266.266,0,0,1-.221-.227c-.017-.107-.033-.214-.057-.318a.27.27,0,0,1,.13-.288l.773-.428a.268.268,0,0,0,.13-.331l-.134-.368a.266.266,0,0,0-.314-.167l-.866.167a.269.269,0,0,1-.288-.137q-.075-.141-.161-.281a.272.272,0,0,1,.023-.318L60.4,53.2a.266.266,0,0,0,.01-.355l-.251-.3a.264.264,0,0,0-.351-.05l-.759.455a.267.267,0,0,1-.314-.03c-.08-.07-.164-.141-.248-.207a.267.267,0,0,1-.084-.3l.314-.826a.268.268,0,0,0-.11-.338l-.341-.2a.267.267,0,0,0-.348.074l-.555.7a.239.239,0,0,1-.284.084s-.187-.077-.328-.124a.266.266,0,0,1-.184-.258l.013-.883a.269.269,0,0,0-.221-.281l-.388-.067a.27.27,0,0,0-.3.187l-.288.836a.267.267,0,0,1-.261.181c-.054,0-.11,0-.164,0s-.11,0-.164,0a.27.27,0,0,1-.261-.181l-.288-.836a.27.27,0,0,0-.3-.187l-.388.067a.269.269,0,0,0-.221.281l.013.883a.268.268,0,0,1-.184.258l-.325.124a.267.267,0,0,1-.294-.1l-.552-.679a.267.267,0,0,0-.348-.074l-.341.2a.264.264,0,0,0-.11.338l.314.826a.269.269,0,0,1-.084.3c-.084.067-.167.137-.248.207a.267.267,0,0,1-.314.03l-.749-.462a.268.268,0,0,0-.351.05l-.251.3a.266.266,0,0,0,.01.355l.579.666a.266.266,0,0,1,.023.318q-.085.136-.161.281a.272.272,0,0,1-.288.137l-.866-.167a.269.269,0,0,0-.314.167l-.134.368a.268.268,0,0,0,.13.331l.773.428a.265.265,0,0,1,.13.288c-.02.107-.04.211-.057.318a.27.27,0,0,1-.221.227l-.873.141a.27.27,0,0,0-.238.264v.391a.262.262,0,0,0,.238.264l.873.141a.266.266,0,0,1,.221.227c.017.107.033.214.057.318a.27.27,0,0,1-.13.288l-.773.428a.268.268,0,0,0-.13.331l.134.368a.266.266,0,0,0,.314.167l.866-.167a.269.269,0,0,1,.288.137q.075.141.161.281a.272.272,0,0,1-.023.318l-.579.666a.266.266,0,0,0-.01.355l.251.3a.264.264,0,0,0,.351.05l.759-.455a.267.267,0,0,1,.314.03c.08.07.164.141.248.207a.267.267,0,0,1,.084.3l-.314.826a.268.268,0,0,0,.11.338l.341.2A.267.267,0,0,0,52,63.2l.562-.689a.245.245,0,0,1,.274-.087c.114.047.191.074.331.12a.266.266,0,0,1,.184.258l-.013.883a.269.269,0,0,0,.221.281l.388.067a.27.27,0,0,0,.3-.187l.288-.836a.267.267,0,0,1,.261-.181c.054,0,.11,0,.164,0s.11,0,.164,0a.27.27,0,0,1,.261.181l.288.836a.27.27,0,0,0,.3.187l.388-.067a.269.269,0,0,0,.221-.281l-.013-.883a.266.266,0,0,1,.184-.258c.141-.047.234-.084.321-.117a.233.233,0,0,1,.278.07l.569.7a.267.267,0,0,0,.348.074l.341-.2a.264.264,0,0,0,.11-.338l-.314-.826a.269.269,0,0,1,.084-.3c.084-.067.167-.137.248-.207a.267.267,0,0,1,.314-.03l.759.455a.268.268,0,0,0,.351-.05l.251-.3a.266.266,0,0,0-.01-.355l-.579-.666a.266.266,0,0,1-.023-.318q.085-.135.161-.281a.272.272,0,0,1,.288-.137l.866.167a.269.269,0,0,0,.314-.167l.134-.368a.268.268,0,0,0-.13-.331l-.773-.428a.265.265,0,0,1-.13-.288c.02-.107.04-.211.057-.318a.27.27,0,0,1,.221-.227l.873-.141a.27.27,0,0,0,.238-.264v-.391A.275.275,0,0,0,61.68,56.7Zm-9.2,3.837a.539.539,0,0,1-.836.12,4.822,4.822,0,0,1-.01-6.979.537.537,0,0,1,.836.117l1.873,3.232a.272.272,0,0,1,0,.268Zm7.166-2.248a4.823,4.823,0,0,1-6.042,3.5.534.534,0,0,1-.311-.78l1.863-3.242a.266.266,0,0,1,.231-.134H59.12A.534.534,0,0,1,59.642,58.289Zm-.519-1.6h-3.74a.262.262,0,0,1-.231-.134l-1.877-3.235a.537.537,0,0,1,.308-.783,4.828,4.828,0,0,1,6.059,3.493A.534.534,0,0,1,59.124,56.693Z" transform="translate(-48 -50.279)" fill="#444"/>
</svg>
