<svg xmlns="http://www.w3.org/2000/svg" width="26.691" height="24.69" viewBox="0 0 26.691 24.69">
  <g id="ios-cart" transform="translate(0)">
    <ellipse id="Ellipse_4" data-name="Ellipse 4" cx="1.54" cy="1.54" rx="1.54" ry="1.54" transform="translate(5.614 21.601) rotate(-1.057)" fill="#f29b62"/>
    <ellipse id="Ellipse_5" data-name="Ellipse 5" cx="1.54" cy="1.54" rx="1.54" ry="1.54" transform="matrix(0.024, -1, 1, 0.024, 20.017, 24.616)" fill="#f29b62"/>
    <path id="Path_2" data-name="Path 2" d="M74.782,68.283a.377.377,0,0,0-.334-.27L53.543,65.991a.643.643,0,0,1-.481-.3,6.536,6.536,0,0,0-.783-1.194c-.494-.6-1.425-.584-3.132-.6A.935.935,0,0,0,48.1,64.8a.918.918,0,0,0,1,.905,8.529,8.529,0,0,1,1.669.122c.3.09.546.584.635,1.014a.024.024,0,0,0,.006.019c.013.077.128.655.128.661l2.567,13.582a4.991,4.991,0,0,0,.931,2.291,2.561,2.561,0,0,0,2.112,1.04H72.336a.912.912,0,0,0,.924-.86.894.894,0,0,0-.9-.937H57.137a.746.746,0,0,1-.533-.18,2.88,2.88,0,0,1-.738-1.669l-.276-1.521a.035.035,0,0,1,.026-.039L73.44,76.216a.375.375,0,0,0,.314-.334l1.027-7.433A.366.366,0,0,0,74.782,68.283Z" transform="translate(-48.1 -63.899)" fill="#f29b62"/>
  </g>
</svg>
