<svg xmlns="http://www.w3.org/2000/svg" width="26.125" height="22" viewBox="0 0 26.125 22">
  <g id="ios-list" transform="translate(-64.974 -103.636)">
    <ellipse id="Ellipse_6" data-name="Ellipse 6" cx="2" cy="3" rx="2" ry="3" transform="translate(64.974 111.636)" fill="#f29b62"/>
    <circle id="Ellipse_7" data-name="Ellipse 7" cx="2" cy="2" r="2" transform="translate(64.974 103.636)" fill="#f29b62"/>
    <circle id="Ellipse_8" data-name="Ellipse 8" cx="2" cy="2" r="2" transform="translate(64.974 121.636)" fill="#f29b62"/>
    <path id="Path_5" data-name="Path 5" d="M193.442,124.674H176.619a1.119,1.119,0,1,0,0,2.238h16.823a1.119,1.119,0,0,0,0-2.238Zm0,8.674H176.619a1.119,1.119,0,1,0,0,2.238h16.823a1.119,1.119,0,0,0,0-2.238Zm-16.823-15.109h16.823a1.119,1.119,0,0,0,0-2.238H176.619a1.119,1.119,0,1,0,0,2.238Z" transform="translate(-103.463 -11.151)" fill="#f29b62"/>
  </g>
</svg>
