<svg xmlns="http://www.w3.org/2000/svg" width="21.691" height="20.065" viewBox="0 0 21.691 20.065">
  <g id="ios-cart" transform="translate(0)">
    <ellipse id="Ellipse_4" data-name="Ellipse 4" cx="1.252" cy="1.252" rx="1.252" ry="1.252" transform="translate(4.562 17.554) rotate(-1.057)" fill="#fff"/>
    <ellipse id="Ellipse_5" data-name="Ellipse 5" cx="1.252" cy="1.252" rx="1.252" ry="1.252" transform="matrix(0.024, -1, 1, 0.024, 16.267, 20.005)" fill="#fff"/>
    <path id="Path_2" data-name="Path 2" d="M69.784,67.461a.307.307,0,0,0-.271-.219L52.523,65.6a.523.523,0,0,1-.391-.245,5.312,5.312,0,0,0-.636-.97c-.4-.49-1.158-.475-2.545-.485a.76.76,0,0,0-.85.735.746.746,0,0,0,.814.735,6.931,6.931,0,0,1,1.356.1c.245.073.443.475.516.824a.019.019,0,0,0,.005.016c.01.063.1.532.1.537l2.086,11.037a4.056,4.056,0,0,0,.756,1.862,2.082,2.082,0,0,0,1.716.845H67.8a.742.742,0,0,0,.751-.7.727.727,0,0,0-.73-.762H55.444a.606.606,0,0,1-.433-.146,2.341,2.341,0,0,1-.6-1.356l-.224-1.236a.029.029,0,0,1,.021-.031l14.485-2.452a.3.3,0,0,0,.256-.271l.835-6.04A.3.3,0,0,0,69.784,67.461Z" transform="translate(-48.1 -63.899)" fill="#fff"/>
  </g>
</svg>
