<svg xmlns="http://www.w3.org/2000/svg" width="10.298" height="21.689" viewBox="0 0 10.298 21.689">
  <path id="ios-man" d="M147.138,20.094h-.009a2.047,2.047,0,1,1,2.056-2.047,2.052,2.052,0,0,1-2.047,2.047Zm-1.559,17.6a1.235,1.235,0,0,1-1.22-1.374l.045-12.544h-.452v4.744a1.1,1.1,0,0,1-.289.827.96.96,0,0,1-1.374,0,1.088,1.088,0,0,1-.289-.827V23.022a2.61,2.61,0,0,1,.624-1.735,2.308,2.308,0,0,1,1.762-.813h5.526a2.3,2.3,0,0,1,1.762.818,2.6,2.6,0,0,1,.624,1.731v5.495a1.071,1.071,0,0,1-.3.827,1.016,1.016,0,0,1-1.4,0,1.071,1.071,0,0,1-.3-.827V23.772h-.407V36.315a1.252,1.252,0,1,1-2.494.027v-6.38h-.542v6.367A1.285,1.285,0,0,1,145.579,37.689Z" transform="translate(-142 -16)" fill="#fff"/>
</svg>
