<svg xmlns="http://www.w3.org/2000/svg" width="23.999" height="24" viewBox="0 0 23.999 24">
  <path id="ios-person" d="M88,87.394c-.45-1.987-3.019-2.956-3.906-3.269a29.123,29.123,0,0,0-3.256-.625,3.308,3.308,0,0,1-1.506-.694,13.164,13.164,0,0,1-.1-3.081,9.27,9.27,0,0,0,.713-1.356A17.494,17.494,0,0,0,80.465,76s.513,0,.694-.9a8.855,8.855,0,0,0,.462-2.094c-.037-.719-.431-.7-.431-.7a10.958,10.958,0,0,0,.425-3.206c.056-2.569-1.956-5.1-5.6-5.1-3.694,0-5.662,2.531-5.606,5.1a11.43,11.43,0,0,0,.419,3.206s-.394-.019-.431.7a8.855,8.855,0,0,0,.463,2.094c.175.9.694.9.694.9a17.494,17.494,0,0,0,.525,2.369,9.27,9.27,0,0,0,.713,1.356,13.164,13.164,0,0,1-.1,3.081,3.308,3.308,0,0,1-1.506.694,29.123,29.123,0,0,0-3.256.625c-.887.313-3.456,1.281-3.906,3.269a.5.5,0,0,0,.494.606H87.509A.5.5,0,0,0,88,87.394Z" transform="translate(-64.009 -64)" fill="#f29b62"/>
</svg>
