<svg xmlns="http://www.w3.org/2000/svg" width="64.333" height="64.333" viewBox="0 0 64.333 64.333">
  <g id="ios-checkmark-outline" transform="translate(-48 -48)">
    <path id="Path_28" data-name="Path 28" d="M179.652,177.3l-19.3,19.439-7.3-7.3-2.753,2.753,8.66,8.66a1.705,1.705,0,0,0,2.737.015l20.676-20.785Z" transform="translate(-86.48 -109.304)" fill="#00987e"/>
    <g id="Group_161" data-name="Group 161" transform="translate(48 48)">
      <path id="Path_29" data-name="Path 29" d="M80.167,48a32.167,32.167,0,1,0,32.167,32.167A32.162,32.162,0,0,0,80.167,48Zm0,61.658a29.491,29.491,0,1,1,29.491-29.491A29.525,29.525,0,0,1,80.167,109.658Z" transform="translate(-48 -48)" fill="#00987e"/>
    </g>
  </g>
</svg>
