<svg xmlns="http://www.w3.org/2000/svg" width="11.712" height="21.951" viewBox="0 0 11.712 21.951">
  <path id="ios-woman" d="M134.992,37.951a1.012,1.012,0,0,1-.732-.3,1.174,1.174,0,0,1-.325-.851v-5.46H133.3V36.8a1.15,1.15,0,0,1-.338.855,1.083,1.083,0,0,1-1.491,0,1.142,1.142,0,0,1-.338-.855v-5.46h-2.008l2.035-7.8h-.311l-1.116,4.134a1.04,1.04,0,0,1-.979.814.973.973,0,0,1-.777-.4,1.234,1.234,0,0,1-.165-1.093l1.326-4.761a2.5,2.5,0,0,1,2.227-1.8h4.5a2.609,2.609,0,0,1,2.218,1.779l0,.018L139.415,27a1.246,1.246,0,0,1-.178,1.1.979.979,0,0,1-.773.393,1.04,1.04,0,0,1-.974-.828v-.009l-1.111-4.12h-.352l2.081,7.8h-2.063V36.8a1.173,1.173,0,0,1-.325.851A1,1,0,0,1,134.992,37.951Zm-1.377-17.817a2.068,2.068,0,1,1,2.008-2.067A2.041,2.041,0,0,1,133.616,20.134Z" transform="translate(-127.756 -16)" fill="#f29b62"/>
</svg>
