<svg xmlns="http://www.w3.org/2000/svg" width="13.935" height="11.794" viewBox="0 0 13.935 11.794">
  <g id="ios-log-out" transform="translate(-48 -80)">
    <path id="Path_13" data-name="Path 13" d="M56.846,89.784a.47.47,0,0,0-.469.469.6.6,0,0,1-.6.6H49.541a.6.6,0,0,1-.6-.6V81.541a.6.6,0,0,1,.6-.6h6.232a.6.6,0,0,1,.6.6.469.469,0,1,0,.938,0A1.541,1.541,0,0,0,55.773,80H49.541A1.541,1.541,0,0,0,48,81.541v8.712a1.541,1.541,0,0,0,1.541,1.541h6.232a1.541,1.541,0,0,0,1.541-1.541A.47.47,0,0,0,56.846,89.784Z" fill="#444"/>
    <path id="Path_14" data-name="Path 14" d="M155.535,154.137A.466.466,0,0,0,155.2,154a.458.458,0,0,0-.332.137.467.467,0,0,0,0,.663l2.185,2.151h-8.588a.469.469,0,0,0,0,.938h8.6l-2.131,2.148a.473.473,0,0,0,0,.663l0,0a.485.485,0,0,0,.328.131.453.453,0,0,0,.332-.137l2.768-2.761a.658.658,0,0,0,0-.978Z" transform="translate(-96.649 -71.521)" fill="#444"/>
  </g>
</svg>
