<svg id="ios-home" xmlns="http://www.w3.org/2000/svg" width="20.514" height="20.507" viewBox="0 0 20.514 20.507">
  <path id="Path_3" data-name="Path 3" d="M104.011,103.244a.193.193,0,0,0-.246,0l-7.69,6.152a.207.207,0,0,0-.074.153v11.338a.1.1,0,0,0,.1.1h5.324a.1.1,0,0,0,.1-.1v-6.9a.1.1,0,0,1,.1-.1h4.535a.1.1,0,0,1,.1.1v6.9a.1.1,0,0,0,.1.1h5.324a.1.1,0,0,0,.1-.1V109.549a.2.2,0,0,0-.074-.153Z" transform="translate(-93.633 -100.479)" fill="#fff"/>
  <path id="Path_4" data-name="Path 4" d="M68.229,55.7l-9.317-7.463a1.082,1.082,0,0,0-1.351,0l-4.057,3.3v-2.08a.1.1,0,0,0-.1-.1H50.448a.1.1,0,0,0-.1.1V54l-2.1,1.73a.69.69,0,0,0-.059,1.03.686.686,0,0,0,.488.2.7.7,0,0,0,.434-.153l9.066-7.3a.088.088,0,0,1,.064-.02.119.119,0,0,1,.064.02l9.066,7.266a.7.7,0,0,0,.434.153.7.7,0,0,0,.7-.73.7.7,0,0,0-.266-.5Z" transform="translate(-47.982 -48)" fill="#fff"/>
</svg>
