<svg xmlns="http://www.w3.org/2000/svg" width="20.428" height="18.896" viewBox="0 0 20.428 18.896">
  <g id="ios-cart" transform="translate(-48.1 -63.899)">
    <circle id="Ellipse_1" data-name="Ellipse 1" cx="1.179" cy="1.179" r="1.179" transform="translate(52.396 80.431) rotate(-1.057)"/>
    <circle id="Ellipse_2" data-name="Ellipse 2" cx="1.179" cy="1.179" r="1.179" transform="matrix(0.024, -1, 1, 0.024, 63.42, 82.739)"/>
    <path id="Path_1" data-name="Path 1" d="M68.521,67.254a.289.289,0,0,0-.255-.206l-16-1.547a.493.493,0,0,1-.368-.231,5,5,0,0,0-.6-.914c-.378-.462-1.091-.447-2.4-.457a.716.716,0,0,0-.8.693.7.7,0,0,0,.766.693,6.526,6.526,0,0,1,1.277.093c.231.069.418.447.486.776a.018.018,0,0,0,0,.015c.01.059.1.5.1.506L52.7,77.069a3.82,3.82,0,0,0,.712,1.754,1.96,1.96,0,0,0,1.616.8H66.649a.7.7,0,0,0,.707-.658.684.684,0,0,0-.688-.717H55.017a.571.571,0,0,1-.408-.138,2.2,2.2,0,0,1-.565-1.277l-.211-1.164a.027.027,0,0,1,.02-.029l13.642-2.309a.287.287,0,0,0,.241-.255l.786-5.689A.28.28,0,0,0,68.521,67.254Z" transform="translate(0 0)"/>
  </g>
</svg>
