<svg xmlns="http://www.w3.org/2000/svg" width="25.454" height="20" viewBox="0 0 25.454 20">
  <path id="picture" d="M88.545,160H64.909a.908.908,0,0,0-.909.909v18.182a.908.908,0,0,0,.909.909H88.545a.908.908,0,0,0,.909-.909V160.909A.908.908,0,0,0,88.545,160Zm-1.136,17.954H66.045v-1.134l3.935-4.668,4.264,5.057,6.633-7.864,6.531,7.744Zm0-3.687-6.358-7.54a.226.226,0,0,0-.347,0l-6.46,7.659-4.091-4.849a.226.226,0,0,0-.347,0L66.045,174V162.045H87.409Zm-16.591-5.858a2.5,2.5,0,1,0-2.5-2.5A2.5,2.5,0,0,0,70.818,168.409Zm0-3.3a.8.8,0,1,1-.8.8A.794.794,0,0,1,70.818,165.114Z" transform="translate(-64 -160)" fill="#444"/>
</svg>
