<svg id="telephone" xmlns="http://www.w3.org/2000/svg" width="14.933" height="14.933" viewBox="0 0 14.933 14.933">
  <path id="Path" d="M14.252,10.835a6.652,6.652,0,0,0-3.533-1.828,1.255,1.255,0,0,0-.691.182A3.8,3.8,0,0,1,8.8,9.83c-.119,0-.246-.106-.526-.348l-.047-.042A14.719,14.719,0,0,1,6.981,8.277L6.9,8.2c-.055-.055-.1-.106-.148-.153-.263-.272-.454-.467-1.128-1.23L5.6,6.779c-.322-.365-.534-.6-.547-.776s.136-.445.513-.959a2.1,2.1,0,0,0,.055-2.27A10.325,10.325,0,0,0,4.253.815L4.211.764A1.831,1.831,0,0,0,2.773,0,2.546,2.546,0,0,0,1.416.492c-.021.013-.042.03-.064.042A2.723,2.723,0,0,0,.173,1.943c-.242.785-.4,1.8.755,3.92a18.942,18.942,0,0,0,3.351,4.544,20.247,20.247,0,0,0,3.309,2.817,7.691,7.691,0,0,0,3.953,1.71,2.884,2.884,0,0,0,2.728-1.268C15.371,12.333,14.913,11.518,14.252,10.835Z" transform="translate(0)" fill="#fff"/>
</svg>
